PathFileType	4	(X/Y/Z)	T00_Trial_0-99.trc
DataRate	CameraRate	NumFrames	NumMarkers	Units	OrigDataRate	OrigDataStartFrame	OrigNumFrames
60	60	6	22	m	60	86	99
Frame#	Time	Hip			RHip			RKnee			RAnkle			RBigToe			RSmallToe			RHeel			LHip			LKnee			LAnkle			LBigToe			LSmallToe			LHeel			Neck			Head			Nose			RShoulder			RElbow			RWrist			LShoulder			LElbow			LWrist		
		X1	Y1	Z1	X2	Y2	Z2	X3	Y3	Z3	X4	Y4	Z4	X5	Y5	Z5	X6	Y6	Z6	X7	Y7	Z7	X8	Y8	Z8	X9	Y9	Z9	X10	Y10	Z10	X11	Y11	Z11	X12	Y12	Z12	X13	Y13	Z13	X14	Y14	Z14	X15	Y15	Z15	X16	Y16	Z16	X17	Y17	Z17	X18	Y18	Z18	X19	Y19	Z19	X20	Y20	Z20	X21	Y21	Z21	X22	Y22	Z22
86	1.4333333333333331	-0.009952333698658666	0.9357695143140043	-0.8479554430952803	-0.07053080680072639	0.9347627086004704	-0.7802566514735214	-0.08804295051046976	0.49978824287649176	-0.6972228399121148	-0.05699229480035687	0.13658194537701687	-0.733756990028495	-0.06884459182821809	0.0038174895656855135	-0.5344295459054151	-0.10822686660690908	0.004370389523762085	-0.567744515868086	-0.04965731950029449	0.09437569531930014	-0.7780594868506667	0.0744673334514731	0.9352293436405537	-0.8699399107360267	0.06952937570324845	0.5026452467176504	-0.7555096000111653	0.025272817552425962	0.2429681656621966	-1.0443797199299558	0.0388280112553213	0.08618656763741711	-0.8718832609533571	0.040821594814371746	0.0864934698800465	-0.9558035709755339	0.007861181195105154	0.22597407905748526	-1.1195648885788554	-0.034789962834346974	1.4551329066011616	-0.6666675212198411	0.04274301016559663	1.6813526485108337	-1.0112756296849237	0.029021896935986606	1.5293501585800608	-1.1363854640397568	-0.21512530160312882	1.3773622890435222	-0.710697820030252	-0.43880572243687027	1.2084455307798945	-0.7388119430755666	-0.3701507809225133	1.4101163265320904	-0.5222861927971977	0.13664683783036222	1.4250893273419005	-0.7630407233417056	0.3844205698308675	1.3267000119566241	-0.8013296495415139	0.6072644773184275	1.2547503752803308	-0.757370579393533
87	1.45	-0.006848204468231569	0.9375068364334795	-0.8427078197902149	-0.07053196158985944	0.9347641206662195	-0.7802615109588671	-0.08568995001904353	0.500154450252752	-0.690861993042324	-0.06061588604668373	0.1450355267467031	-0.7355886200970913	-0.0707792437686688	0.0024894465898058177	-0.5283684198951554	-0.10895353717538475	0.0006804071110726502	-0.564572163969028	-0.05353136456923557	0.1041548833985398	-0.7806661795572778	0.07990784863016037	0.9366733390563075	-0.8587616340704838	0.07489015945851249	0.5080660434604289	-0.7307251869701423	0.03317473261101203	0.24923797178567733	-1.0137938782483658	0.04367669004933807	0.09245225246999451	-0.8429365034351884	0.04938058235471098	0.09267611932918413	-0.9201145494371593	0.015478323847167226	0.2307047051736157	-1.0884615633010852	-0.046233128722383644	1.4533100257788132	-0.6516945440930025	0.011523732965975975	1.6676318561026817	-0.8675727167707155	0.02485322865604129	1.5272345180815365	-1.114268100113762	-0.2221770026307403	1.3692517553935397	-0.7028008299253079	-0.43870808177448806	1.1910751264145716	-0.732098864929355	-0.36844497023703016	1.4132587928823308	-0.5227137261584741	0.1297567882942621	1.4301060902865126	-0.7466039557262664	0.3808834917337426	1.3492734154552701	-0.7710087090825158	0.6119412181843941	1.3019516002318512	-0.7331977231528631
88	1.4666666666666666	-0.0035736705121906863	0.9391521944204329	-0.8380407176146111	-0.07053764330670821	0.9347710682183988	-0.7802854202761396	-0.08428755329955816	0.5007363805173356	-0.6842025449208999	-0.0639397219166243	0.15304318052474528	-0.7394322848360122	-0.07241884230665446	0.0031302933006112275	-0.5216505479907263	-0.10838607454612109	-0.002220094762398338	-0.5606442422083009	-0.057351411034119504	0.1129789666854673	-0.7850962067969193	0.0855635068402488	0.9377872793177647	-0.8477869697938766	0.0791996194291079	0.5127758645250011	-0.7065920631421503	0.04027074193416797	0.2521176141039295	-0.9801423914650257	0.04773834608031319	0.0983267561803269	-0.8110128822098635	0.0595519057808681	0.0994003976226239	-0.8798352191310433	0.022743983283540894	0.23040076842999946	-1.0530793395158522	-0.05693552861424147	1.4513204962708575	-0.6375886735822281	-0.026415400670602034	1.6510391005063794	-0.7032611817158855	0.013858555599191674	1.521702194697813	-1.0578770975706044	-0.2284824857178303	1.3612514439721681	-0.6945405377007225	-0.4375100165275985	1.1739699629794238	-0.7259212761344626	-0.36673533181662127	1.4169331183917104	-0.523406721833436	0.12304211976622433	1.4343854546705117	-0.7318171415834984	0.3768449271550795	1.370066553902461	-0.7419933895026882	0.6111448970574626	1.3472050031070357	-0.7066292104196724
89	1.4833333333333334	6.907200843760521e-06	0.9407343193277463	-0.8333048326163877	-0.07055057761333558	0.9347868841720249	-0.7803398493244509	-0.08392620166420052	0.5014920062444701	-0.6774521743674484	-0.06591327805491189	0.1588640508704223	-0.7440899965404598	-0.07366268929933277	0.005410090320322856	-0.5151487932414047	-0.10688583818646816	-0.0033394063063238886	-0.5571596958222514	-0.06003329069144156	0.11904754573851034	-0.7902334616251127	0.09117697866128094	0.9389009402177444	-0.8371896386406001	0.08252103643247084	0.5166982210414716	-0.6828086922423867	0.04669186245012797	0.25143488962854954	-0.9440810133402477	0.050758839882001375	0.10338961924417565	-0.7745118721216275	0.07048962003801809	0.10632352544159197	-0.8365183728667802	0.029742796965228337	0.22545197742191692	-1.0142779779909712	-0.06671636509984567	1.4491198266820238	-0.6250740690589073	-0.06422872108798557	1.6346132077548847	-0.5540484872032962	-0.006485427308252655	1.5115091690840006	-0.9553182589063046	-0.2342454276835698	1.3534491938118045	-0.686126506869975	-0.4353397418578294	1.1579429528143195	-0.7199684144736603	-0.3657039473698691	1.419842214370404	-0.5244611260810431	0.1167204658152764	1.4383213659183913	-0.7191722652657629	0.3730324001004677	1.3894910547480468	-0.7167878108705512	0.6055460873001829	1.3891499943352297	-0.6777368711160304
90	1.5	0.0037974463234094467	0.942227508919287	-0.8278723630445236	-0.07057262680956487	0.9348138457305453	-0.7804326348754175	-0.08445712265803226	0.5023655606635814	-0.6710564745840985	-0.06589123878466072	0.1612466643555972	-0.7480276429724658	-0.07507123141813973	0.009285670790064196	-0.510493128792585	-0.10553055748797965	-0.0017115075618991098	-0.5559752444250462	-0.06057423572997039	0.12130751131462032	-0.7945989369568154	0.09632574657902923	0.9401706066856279	-0.8270274397197865	0.08486316085079991	0.5198974915798911	-0.659694710293064	0.052494869135876254	0.24715289648918254	-0.9060080076900496	0.052647976366237234	0.10714978484107257	-0.7323667750091113	0.08117673813188181	0.11295467142940879	-0.7916130443406815	0.03645343033720885	0.21674971715902414	-0.9729472030220658	-0.07539392129600758	1.4467825290018412	-0.6144658473224893	-0.09641269969152967	1.6208254212310909	-0.44404653049415344	-0.03618032870131351	1.4966882328691935	-0.8079550929354743	-0.23947565441755603	1.346079745103981	-0.677958570458548	-0.4324198870764165	1.1436111751723792	-0.7138866214220069	-0.36672230789637594	1.4191997933252323	-0.5257757728355921	0.11129017828951569	1.4421138545663619	-0.7086112355642428	0.37044642688120544	1.4076525755089138	-0.6972194927988685	0.5963349353725431	1.4265015372899643	-0.647333937276921
91	1.5166666666666666	0.007569899905256006	0.9436654268859814	-0.8213808469794985	-0.07060234446282969	0.9348501842092478	-0.7805576901746191	-0.08556564173226942	0.5033206126079781	-0.665542163024636	-0.06387375924791196	0.16002745482427494	-0.7503494888137484	-0.0772979567220952	0.01473641870068947	-0.5096423178573369	-0.1054800698269086	0.0031375114500826707	-0.5592857272564857	-0.05853244552265749	0.11986617646294376	-0.7973073376560558	0.10072656224642916	0.9416034829440164	-0.8171656107289325	0.08628521453297847	0.5224009847021377	-0.6377651753315449	0.05766127393845066	0.2396016506297316	-0.8661547872620329	0.05342108575753845	0.10926158215745051	-0.6851133857472522	0.09055035768814966	0.11858594825302637	-0.7460344001242635	0.04275518629518675	0.20541567847371	-0.929898271748944	-0.08293949956760305	1.4445677045537415	-0.6056207032211934	-0.12096309470461958	1.6106380752272307	-0.3759997211288675	-0.07072289175709602	1.4795369790482669	-0.6400014630700895	-0.24402745080094115	1.3395105695918832	-0.6706429929086423	-0.42906975811356446	1.1310973945899903	-0.7080539296579432	-0.37191227202313193	1.410463009257009	-0.5268753455812318	0.10705532580192324	1.4456942457148287	-0.6994917817317827	0.3696926885599407	1.4241998799946556	-0.6834508198738614	0.5846966307566891	1.458469457063041	-0.6167995474500926
